<svg width="16" height="17" viewBox="0 0 16 17" fill="none" xmlns="http://www.w3.org/2000/svg">
<path d="M8.00065 15.8987C4.04732 15.8987 0.833984 12.5303 0.833984 8.38611C0.833984 4.24196 4.04732 0.873535 8.00065 0.873535C11.954 0.873535 15.1673 4.24196 15.1673 8.38611C15.1673 12.5303 11.954 15.8987 8.00065 15.8987ZM8.00065 1.9218C4.60065 1.9218 1.83398 4.82201 1.83398 8.38611C1.83398 11.9502 4.60065 14.8504 8.00065 14.8504C11.4007 14.8504 14.1673 11.9502 14.1673 8.38611C14.1673 4.82201 11.4007 1.9218 8.00065 1.9218Z" fill="white"/>
<path d="M7.05297 10.8879C6.91964 10.8879 6.79297 10.832 6.69964 10.7341L4.81297 8.7564C4.61964 8.55373 4.61964 8.21829 4.81297 8.01562C5.0063 7.81296 5.3263 7.81296 5.51964 8.01562L7.05297 9.62297L10.4796 6.0309C10.673 5.82824 10.993 5.82824 11.1863 6.0309C11.3796 6.23357 11.3796 6.56901 11.1863 6.77168L7.4063 10.7341C7.31297 10.832 7.1863 10.8879 7.05297 10.8879Z" fill="white"/>
</svg>
